name pl10_filtered_grf.mot
datacolumns 37
datarows 12
range 0.831500 0.837000
endheader
time	1_ground_force_vx	1_ground_force_vy	1_ground_force_vz	1_ground_force_px	1_ground_force_py	1_ground_force_pz	1_ground_torque_x	1_ground_torque_y	1_ground_torque_z	2_ground_force_vx	2_ground_force_vy	2_ground_force_vz	2_ground_force_px	2_ground_force_py	2_ground_force_pz	2_ground_torque_x	2_ground_torque_y	2_ground_torque_z	3_ground_force_vx	3_ground_force_vy	3_ground_force_vz	3_ground_force_px	3_ground_force_py	3_ground_force_pz	3_ground_torque_x	3_ground_torque_y	3_ground_torque_z	4_ground_force_vx	4_ground_force_vy	4_ground_force_vz	4_ground_force_px	4_ground_force_py	4_ground_force_pz	4_ground_torque_x	4_ground_torque_y	4_ground_torque_z
            0.831500	            7.002942	         1390.415059	          206.558729	            0.143669	            0.000000	            0.233702	            0.214787	           42.645388	            6.335358	          102.881430	          786.149704	          277.896839	           -0.206686	            0.000000	            0.215744	            5.661937	           43.264664	           15.293669	            1.013048	           -0.437099	           -1.947026	            0.413351	            1.262968	            1.874670	            0.036706	           -0.019702	            0.013433	           -1.715733	           -1.746606	           -2.926516	           -0.353359	            1.256078	            1.902048	            0.024080	           -0.000308	            0.038266
            0.832000	            8.796926	         1395.923695	          197.674823	            0.143758	            0.000000	            0.234687	            0.272711	           43.274576	            6.128053	          102.592420	          792.259142	          269.542833	           -0.205371	            0.000000	            0.217305	            5.522981	           42.650640	           14.510624	            1.033310	           -0.428584	           -1.946036	            0.413347	            1.262968	            1.874672	            0.037043	           -0.019940	            0.013616	           -1.725469	           -1.752128	           -2.929203	           -0.353360	            1.256076	            1.902052	            0.024153	           -0.000200	            0.038128
            0.832500	           10.504521	         1400.344990	          189.239555	            0.143837	            0.000000	            0.235606	            0.328993	           43.857686	            5.926832	          102.165320	          798.527252	          261.094845	           -0.204064	            0.000000	            0.218903	            5.370778	           41.978168	           13.725622	            1.052875	           -0.419772	           -1.944641	            0.413344	            1.262969	            1.874673	            0.037384	           -0.020172	            0.013810	           -1.735486	           -1.757784	           -2.931935	           -0.353362	            1.256075	            1.902056	            0.024222	           -0.000110	            0.037983
            0.833000	           12.116703	         1403.669257	          181.290082	            0.143905	            0.000000	            0.236457	            0.383216	           44.393959	            5.733676	          101.603156	          804.958775	          252.582576	           -0.202774	            0.000000	            0.220533	            5.206615	           41.249808	           12.943499	            1.071668	           -0.410680	           -1.942852	            0.413341	            1.262969	            1.874673	            0.037730	           -0.020397	            0.014015	           -1.745736	           -1.763576	           -2.934708	           -0.353363	            1.256073	            1.902059	            0.024284	           -0.000037	            0.037832
            0.833500	           13.624865	         1405.890052	          173.860769	            0.143962	            0.000000	            0.237238	            0.434971	           44.882799	            5.550475	          100.909456	          811.556543	          244.035661	           -0.201505	            0.000000	            0.222190	            5.031902	           40.468687	           12.168964	            1.089603	           -0.401332	           -1.940683	            0.413338	            1.262969	            1.874673	            0.038078	           -0.020617	            0.014228	           -1.756181	           -1.769468	           -2.937530	           -0.353364	            1.256071	            1.902062	            0.024341	            0.000017	            0.037677
            0.834000	           15.020871	         1407.004310	          166.983029	            0.144006	            0.000000	            0.237948	            0.483867	           45.323769	            5.379017	          100.088242	          818.321451	          235.483551	           -0.200266	            0.000000	            0.223870	            4.848150	           39.638477	           11.406532	            1.106604	           -0.391750	           -1.938151	            0.413335	            1.262969	            1.874673	            0.038427	           -0.020829	            0.014449	           -1.766780	           -1.775441	           -2.940399	           -0.353366	            1.256069	            1.902065	            0.024390	            0.000050	            0.037518
            0.834500	           16.297113	         1407.012468	          160.685175	            0.144037	            0.000000	            0.238585	            0.529525	           45.716571	            5.220974	           99.144010	          825.252447	          226.955417	           -0.199061	            0.000000	            0.225568	            4.656946	           38.763370	           10.660443	            1.122600	           -0.381955	           -1.935270	            0.413332	            1.262969	            1.874673	            0.038776	           -0.021034	            0.014676	           -1.777495	           -1.781478	           -2.943311	           -0.353367	            1.256067	            1.902068	            0.024433	            0.000062	            0.037355
            0.835000	           17.446556	         1405.918565	          154.992305	            0.144052	            0.000000	            0.239146	            0.571588	           46.061048	            5.077896	           98.081715	          832.346525	          218.480036	           -0.197895	            0.000000	            0.227280	            4.459921	           37.848032	            9.934611	            1.137520	           -0.371969	           -1.932056	            0.413329	            1.262969	            1.874673	            0.039124	           -0.021231	            0.014907	           -1.788287	           -1.787560	           -2.946258	           -0.353369	            1.256065	            1.902071	            0.024469	            0.000052	            0.037191
            0.835500	           18.462784	         1403.730315	          149.926198	            0.144053	            0.000000	            0.239630	            0.609720	           46.357161	            4.951202	           96.906751	          839.598741	          210.085702	           -0.196772	            0.000000	            0.229000	            4.258727	           36.897549	            9.232562	            1.151304	           -0.361815	           -1.928520	            0.413326	            1.262969	            1.874672	            0.039469	           -0.021418	            0.015140	           -1.799117	           -1.793689	           -2.949222	           -0.353370	            1.256063	            1.902073	            0.024497	            0.000019	            0.037026
            0.836000	           19.340036	         1400.459152	          145.505232	            0.144037	            0.000000	            0.240035	            0.643605	           46.604980	            4.842175	           95.624931	          847.002239	          201.800121	           -0.195696	            0.000000	            0.230724	            4.055002	           35.917371	            8.557392	            1.163886	           -0.351517	           -1.924682	            0.413324	            1.262969	            1.874671	            0.039810	           -0.021597	            0.015375	           -1.809955	           -1.799827	           -2.952200	           -0.353371	            1.256061	            1.902075	            0.024518	           -0.000039	            0.036861
            0.836500	           20.073245	         1396.120250	          141.744325	            0.144004	            0.000000	            0.240359	            0.672952	           46.804673	            4.751952	           94.242460	          854.548285	          193.650330	           -0.194670	            0.000000	            0.232445	            3.850349	           34.913237	            7.911735	            1.175210	           -0.341098	           -1.920558	            0.413322	            1.262969	            1.874670	            0.040146	           -0.021767	            0.015609	           -1.820772	           -1.805956	           -2.955177	           -0.353372	            1.256059	            1.902077	            0.024531	           -0.000122	            0.036697
            0.837000	           20.658068	         1390.732508	          138.654900	            0.143953	            0.000000	            0.240600	            0.697496	           46.956490	            4.681524	           92.765919	          862.226326	          185.662603	           -0.193697	            0.000000	            0.234160	            3.646304	           33.891105	            7.297748	            1.185224	           -0.330583	           -1.916162	            0.413319	            1.262969	            1.874669	            0.040475	           -0.021926	            0.015842	           -1.831538	           -1.812057	           -2.958138	           -0.353374	            1.256057	            1.902079	            0.024536	           -0.000232	            0.036535
